Coordinates
version=1
nRows=21
nColumns=12
inDegrees=yes

Units are S.I. units (second, meters, Newtons, ...)
Angles are in degrees

endheader
time	SC_y	SC_z	SC_x	AC_y	AC_z	AC_x	GH_y	GH_z	GH_yy	EL_x	PS_y
       0.0              -54.32          24.33          29.49          50.74         -4.975          1.332          162.6          34.66          23.94          57.37          106.9
   0.01044              -54.32          24.33          29.48          50.74         -4.976          1.333          162.6          34.67          23.96          57.37          106.9
   0.02088              -54.32          24.33          29.48          50.74         -4.976          1.333          162.6          34.67          23.97          57.38          106.9
   0.03132              -54.32          24.33          29.47          50.74         -4.976          1.334          162.6          34.68          23.99          57.38          106.9
   0.04176              -54.32          24.33          29.47          50.73         -4.976          1.335          162.6          34.69           24.0          57.38          106.9
   0.05221              -54.32          24.33          29.47          50.73         -4.977          1.336          162.5           34.7          24.02          57.38          106.8
   0.06265              -54.32          24.34          29.46          50.73         -4.977          1.337          162.5          34.71          24.04          57.39          106.8
   0.07309              -54.32          24.34          29.46          50.73         -4.977          1.337          162.5          34.72          24.06          57.39          106.8
   0.08353              -54.32          24.34          29.45          50.72         -4.978          1.338          162.5          34.73          24.08          57.39          106.8
   0.09397              -54.32          24.34          29.44          50.72         -4.978          1.339          162.4          34.75          24.11          57.39          106.8
    0.1044              -54.31          24.35          29.44          50.72         -4.978          1.341          162.4          34.76          24.13           57.4          106.8
    0.1149              -54.31          24.35          29.43          50.72         -4.979          1.342          162.4          34.78          24.16           57.4          106.7
    0.1253              -54.31          24.35          29.42          50.71         -4.979          1.343          162.3          34.79          24.19          57.41          106.7
    0.1357              -54.31          24.36          29.42          50.71         -4.979          1.344          162.3          34.81          24.22          57.41          106.7
    0.1462              -54.31          24.36          29.41           50.7          -4.98          1.346          162.3          34.83          24.26          57.42          106.7
    0.1566              -54.31          24.36           29.4           50.7         -4.981          1.348          162.2          34.85          24.29          57.42          106.6
    0.1671               -54.3          24.37          29.39          50.69         -4.981          1.349          162.2          34.87          24.34          57.43          106.6
    0.1775               -54.3          24.37          29.38          50.69         -4.982          1.351          162.1           34.9          24.38          57.43          106.6
    0.1879               -54.3          24.38          29.37          50.68         -4.982          1.353          162.1          34.92          24.43          57.44          106.6
    0.1984               -54.3          24.38          29.35          50.68         -4.983          1.356          162.0          34.95          24.48          57.45          106.5
    0.2088              -54.29          24.39          29.34          50.67         -4.984          1.358          162.0          34.98          24.54          57.45          106.5
